# xmcd
#
# Track frame offsets:
#       150
#       27297
#       42627
#       65610
#       85085
#       100010
#       111207
#       123957
#       141680
#       155225
#       168365
#
# Disc length: 2560 seconds
#
# Revision: 1
# Processed by: cddbd v1.5.1PL0 Copyright (c) Steve Scherf et al.
# Submitted via: MusiCat 1.1
#
DISCID=9b09fe0b
DTITLE=Lisa Ekdahl - When Did You Leave Heaven
DYEAR=1997
DGENRE=
TTITLE0=When Did You Leave Heaven
TTITLE1=But Not For Me
TTITLE2=Cry Me A River
TTITLE3=Love For Sale
TTITLE4=Lush Life
TTITLE5=You're Gonna See A Lot Of Me
TTITLE6=It Was Just One Of Those Things
TTITLE7=The Boy Next Door
TTITLE8=I'm A Fool To Want You
TTITLE9=My Heart Belongs To Daddy
TTITLE10=Blame It On My Youth
EXTD=RCA Victor\n74321 43175 2\n
EXTT0=
EXTT1=
EXTT2=
EXTT3=
EXTT4=
EXTT5=
EXTT6=
EXTT7=
EXTT8=
EXTT9=
EXTT10=
PLAYORDER=
